<mxfile host="app.diagrams.net" modified="2020-05-15T19:40:27.517Z" agent="5.0 (Windows NT 10.0; Win64; x64) AppleWebKit/537.36 (KHTML, like Gecko) Chrome/81.0.4044.138 Safari/537.36" etag="cIxklJjk_R_tI2kiiI_g" version="13.1.1" type="github">
  <diagram id="zCXek7IPLweYMr_kT1lf" name="Page-1">
    <mxGraphModel dx="1038" dy="548" grid="1" gridSize="10" guides="1" tooltips="1" connect="1" arrows="1" fold="1" page="1" pageScale="1" pageWidth="827" pageHeight="1169" math="0" shadow="0">
      <root>
        <mxCell id="0" />
        <mxCell id="1" parent="0" />
        <mxCell id="roHGjZXNY0JQOnyFlCfU-20" value="" style="rounded=0;whiteSpace=wrap;html=1;fillColor=#eeeeee;rotation=30;strokeColor=#36393d;" vertex="1" parent="1">
          <mxGeometry x="95.63" y="229" width="785.98" height="60" as="geometry" />
        </mxCell>
        <mxCell id="roHGjZXNY0JQOnyFlCfU-3" value="" style="rounded=1;whiteSpace=wrap;html=1;fillColor=#f9f7ed;strokeColor=#36393d;" vertex="1" parent="1">
          <mxGeometry x="350" y="190" width="270" height="130" as="geometry" />
        </mxCell>
        <mxCell id="roHGjZXNY0JQOnyFlCfU-21" value="" style="rounded=0;whiteSpace=wrap;html=1;fillColor=#eeeeee;rotation=30;strokeColor=#36393d;" vertex="1" parent="1">
          <mxGeometry x="130" y="350" width="284" height="60" as="geometry" />
        </mxCell>
        <mxCell id="roHGjZXNY0JQOnyFlCfU-1" value="&lt;font style=&quot;font-size: 14px&quot;&gt;Road ID&lt;br&gt;Road Gradient&lt;br&gt;Road Roughness&lt;/font&gt;" style="rounded=0;whiteSpace=wrap;html=1;fillColor=#dae8fc;strokeColor=#6c8ebf;" vertex="1" parent="1">
          <mxGeometry x="150" y="174" width="122" height="55" as="geometry" />
        </mxCell>
        <mxCell id="roHGjZXNY0JQOnyFlCfU-2" value="&lt;font style=&quot;font-size: 18px&quot;&gt;Vehicle&lt;/font&gt;" style="rounded=1;whiteSpace=wrap;html=1;fillColor=#f9f7ed;strokeColor=#36393d;" vertex="1" parent="1">
          <mxGeometry x="220" y="360" width="120" height="60" as="geometry" />
        </mxCell>
        <mxCell id="roHGjZXNY0JQOnyFlCfU-8" value="" style="strokeWidth=2;html=1;shape=mxgraph.flowchart.database;whiteSpace=wrap;fillColor=none;" vertex="1" parent="1">
          <mxGeometry x="720" y="35" width="90" height="110" as="geometry" />
        </mxCell>
        <mxCell id="roHGjZXNY0JQOnyFlCfU-9" value="&lt;font style=&quot;font-size: 18px&quot;&gt;Server&lt;/font&gt;" style="text;html=1;strokeColor=none;fillColor=none;align=center;verticalAlign=middle;whiteSpace=wrap;rounded=0;fontSize=16;" vertex="1" parent="1">
          <mxGeometry x="745" y="42.5" width="40" height="30" as="geometry" />
        </mxCell>
        <mxCell id="roHGjZXNY0JQOnyFlCfU-10" value="&lt;font style=&quot;font-size: 18px&quot;&gt;Road Model&lt;/font&gt;" style="rounded=1;whiteSpace=wrap;html=1;fillColor=none;" vertex="1" parent="1">
          <mxGeometry x="735" y="85" width="60" height="40" as="geometry" />
        </mxCell>
        <mxCell id="roHGjZXNY0JQOnyFlCfU-12" value="&lt;font style=&quot;font-size: 14px&quot;&gt;Request Data Road ID&lt;/font&gt;" style="rounded=0;whiteSpace=wrap;html=1;fillColor=#dae8fc;strokeColor=#6c8ebf;" vertex="1" parent="1">
          <mxGeometry x="595" y="110" width="95" height="35" as="geometry" />
        </mxCell>
        <mxCell id="roHGjZXNY0JQOnyFlCfU-15" value="&lt;font style=&quot;font-size: 14px&quot;&gt;Road ID&lt;br&gt;Road Gradient&lt;br&gt;Road Roughness&lt;/font&gt;" style="rounded=0;whiteSpace=wrap;html=1;fillColor=#dae8fc;strokeColor=#6c8ebf;" vertex="1" parent="1">
          <mxGeometry x="690" y="190" width="120" height="50" as="geometry" />
        </mxCell>
        <mxCell id="roHGjZXNY0JQOnyFlCfU-4" value="&lt;font style=&quot;font-size: 18px&quot;&gt;Road Model Road A&lt;/font&gt;" style="rounded=1;whiteSpace=wrap;html=1;" vertex="1" parent="1">
          <mxGeometry x="350" y="260" width="110" height="60" as="geometry" />
        </mxCell>
        <mxCell id="roHGjZXNY0JQOnyFlCfU-5" value="&lt;font style=&quot;font-size: 18px&quot;&gt;Road Model&lt;/font&gt;" style="rounded=1;whiteSpace=wrap;html=1;" vertex="1" parent="1">
          <mxGeometry x="530" y="190" width="90" height="130" as="geometry" />
        </mxCell>
        <mxCell id="roHGjZXNY0JQOnyFlCfU-6" value="&lt;font style=&quot;font-size: 18px&quot;&gt;Road Model Road B&lt;/font&gt;" style="rounded=1;whiteSpace=wrap;html=1;" vertex="1" parent="1">
          <mxGeometry x="350" y="190" width="110" height="60" as="geometry" />
        </mxCell>
        <mxCell id="roHGjZXNY0JQOnyFlCfU-33" value="" style="endArrow=classic;html=1;shadow=1;entryX=0.5;entryY=1;entryDx=0;entryDy=0;shape=flexArrow;fillColor=#f8cecc;strokeColor=#b85450;exitX=0.5;exitY=0;exitDx=0;exitDy=0;" edge="1" parent="1" source="roHGjZXNY0JQOnyFlCfU-50" target="roHGjZXNY0JQOnyFlCfU-4">
          <mxGeometry width="50" height="50" relative="1" as="geometry">
            <mxPoint x="460" y="380" as="sourcePoint" />
            <mxPoint x="450" y="340" as="targetPoint" />
          </mxGeometry>
        </mxCell>
        <mxCell id="roHGjZXNY0JQOnyFlCfU-38" value="" style="curved=1;endArrow=classic;html=1;shadow=0;entryX=0;entryY=0.5;entryDx=0;entryDy=0;exitX=1;exitY=0.5;exitDx=0;exitDy=0;fillColor=#1ba1e2;strokeColor=#006EAF;" edge="1" parent="1" source="roHGjZXNY0JQOnyFlCfU-1" target="roHGjZXNY0JQOnyFlCfU-3">
          <mxGeometry width="50" height="50" relative="1" as="geometry">
            <mxPoint x="50" y="230" as="sourcePoint" />
            <mxPoint x="100" y="180" as="targetPoint" />
            <Array as="points">
              <mxPoint x="320" y="210" />
            </Array>
          </mxGeometry>
        </mxCell>
        <mxCell id="roHGjZXNY0JQOnyFlCfU-39" value="" style="curved=1;endArrow=classic;html=1;shadow=0;entryX=0.5;entryY=0;entryDx=0;entryDy=0;exitX=0.5;exitY=1;exitDx=0;exitDy=0;fillColor=#1ba1e2;strokeColor=#006EAF;" edge="1" parent="1" source="roHGjZXNY0JQOnyFlCfU-1" target="roHGjZXNY0JQOnyFlCfU-2">
          <mxGeometry width="50" height="50" relative="1" as="geometry">
            <mxPoint x="240" y="310" as="sourcePoint" />
            <mxPoint x="290" y="260" as="targetPoint" />
            <Array as="points">
              <mxPoint x="200" y="300" />
            </Array>
          </mxGeometry>
        </mxCell>
        <mxCell id="roHGjZXNY0JQOnyFlCfU-41" value="" style="curved=1;endArrow=classic;html=1;shadow=0;entryX=0;entryY=0.5;entryDx=0;entryDy=0;exitX=0.5;exitY=0;exitDx=0;exitDy=0;fillColor=#1ba1e2;strokeColor=#006EAF;" edge="1" parent="1" source="roHGjZXNY0JQOnyFlCfU-12" target="roHGjZXNY0JQOnyFlCfU-10">
          <mxGeometry width="50" height="50" relative="1" as="geometry">
            <mxPoint x="640" y="190" as="sourcePoint" />
            <mxPoint x="690" y="140" as="targetPoint" />
            <Array as="points">
              <mxPoint x="690" y="90" />
            </Array>
          </mxGeometry>
        </mxCell>
        <mxCell id="roHGjZXNY0JQOnyFlCfU-42" value="" style="curved=1;endArrow=classic;html=1;shadow=0;entryX=0.586;entryY=0.001;entryDx=0;entryDy=0;entryPerimeter=0;exitX=0;exitY=0.5;exitDx=0;exitDy=0;fillColor=#1ba1e2;strokeColor=#006EAF;" edge="1" parent="1" source="roHGjZXNY0JQOnyFlCfU-12" target="roHGjZXNY0JQOnyFlCfU-5">
          <mxGeometry width="50" height="50" relative="1" as="geometry">
            <mxPoint x="590" y="190" as="sourcePoint" />
            <mxPoint x="640" y="140" as="targetPoint" />
            <Array as="points">
              <mxPoint x="575" y="150" />
            </Array>
          </mxGeometry>
        </mxCell>
        <mxCell id="roHGjZXNY0JQOnyFlCfU-44" value="" style="curved=1;endArrow=classic;html=1;shadow=0;entryX=0.5;entryY=1;entryDx=0;entryDy=0;exitX=0.5;exitY=0;exitDx=0;exitDy=0;fillColor=#1ba1e2;strokeColor=#006EAF;" edge="1" parent="1" source="roHGjZXNY0JQOnyFlCfU-15" target="roHGjZXNY0JQOnyFlCfU-10">
          <mxGeometry width="50" height="50" relative="1" as="geometry">
            <mxPoint x="900" y="180" as="sourcePoint" />
            <mxPoint x="950" y="130" as="targetPoint" />
            <Array as="points">
              <mxPoint x="770" y="170" />
            </Array>
          </mxGeometry>
        </mxCell>
        <mxCell id="roHGjZXNY0JQOnyFlCfU-45" value="" style="curved=1;endArrow=classic;html=1;shadow=0;entryX=1;entryY=0.538;entryDx=0;entryDy=0;entryPerimeter=0;exitX=0.5;exitY=1;exitDx=0;exitDy=0;" edge="1" parent="1" source="roHGjZXNY0JQOnyFlCfU-15" target="roHGjZXNY0JQOnyFlCfU-5">
          <mxGeometry width="50" height="50" relative="1" as="geometry">
            <mxPoint x="710" y="320" as="sourcePoint" />
            <mxPoint x="760" y="270" as="targetPoint" />
            <Array as="points">
              <mxPoint x="700" y="270" />
            </Array>
          </mxGeometry>
        </mxCell>
        <mxCell id="roHGjZXNY0JQOnyFlCfU-47" value="" style="endArrow=classic;html=1;shadow=0;entryX=0;entryY=0.5;entryDx=0;entryDy=0;exitX=1;exitY=0.5;exitDx=0;exitDy=0;shape=flexArrow;fillColor=#f8cecc;strokeColor=#b85450;" edge="1" parent="1" source="roHGjZXNY0JQOnyFlCfU-6" target="roHGjZXNY0JQOnyFlCfU-5">
          <mxGeometry width="50" height="50" relative="1" as="geometry">
            <mxPoint x="460" y="140" as="sourcePoint" />
            <mxPoint x="510" y="90" as="targetPoint" />
          </mxGeometry>
        </mxCell>
        <mxCell id="roHGjZXNY0JQOnyFlCfU-48" value="" style="endArrow=classic;html=1;shadow=0;exitX=1;exitY=0.5;exitDx=0;exitDy=0;entryX=0;entryY=0.5;entryDx=0;entryDy=0;shape=flexArrow;fillColor=#f8cecc;strokeColor=#b85450;" edge="1" parent="1" source="roHGjZXNY0JQOnyFlCfU-4" target="roHGjZXNY0JQOnyFlCfU-5">
          <mxGeometry width="50" height="50" relative="1" as="geometry">
            <mxPoint x="840" y="370" as="sourcePoint" />
            <mxPoint x="890" y="320" as="targetPoint" />
          </mxGeometry>
        </mxCell>
        <mxCell id="roHGjZXNY0JQOnyFlCfU-50" value="&lt;span style=&quot;font-size: 14px&quot;&gt;Road Gradient&lt;/span&gt;&lt;br style=&quot;font-size: 14px&quot;&gt;&lt;span style=&quot;font-size: 14px&quot;&gt;Road Roughness&lt;/span&gt;" style="text;html=1;strokeColor=none;fillColor=none;align=center;verticalAlign=middle;whiteSpace=wrap;rounded=0;" vertex="1" parent="1">
          <mxGeometry x="414" y="390" width="130" height="60" as="geometry" />
        </mxCell>
        <mxCell id="roHGjZXNY0JQOnyFlCfU-53" value="&lt;font style=&quot;font-size: 18px&quot;&gt;Road A&lt;/font&gt;" style="text;html=1;strokeColor=none;fillColor=none;align=center;verticalAlign=middle;whiteSpace=wrap;rounded=0;fontColor=#FF3333;" vertex="1" parent="1">
          <mxGeometry x="150" y="72.5" width="70" height="20" as="geometry" />
        </mxCell>
        <mxCell id="roHGjZXNY0JQOnyFlCfU-54" value="" style="curved=1;endArrow=classic;html=1;shadow=0;entryX=1;entryY=0.538;entryDx=0;entryDy=0;entryPerimeter=0;exitX=0.5;exitY=1;exitDx=0;exitDy=0;fillColor=#1ba1e2;strokeColor=#006EAF;" edge="1" parent="1">
          <mxGeometry width="50" height="50" relative="1" as="geometry">
            <mxPoint x="750" y="240" as="sourcePoint" />
            <mxPoint x="620" y="259.94000000000005" as="targetPoint" />
            <Array as="points">
              <mxPoint x="700" y="270" />
            </Array>
          </mxGeometry>
        </mxCell>
        <mxCell id="roHGjZXNY0JQOnyFlCfU-55" value="&lt;font color=&quot;#000000&quot; style=&quot;font-size: 14px&quot;&gt;Vehicle&lt;/font&gt;" style="text;html=1;strokeColor=none;fillColor=none;align=center;verticalAlign=middle;whiteSpace=wrap;rounded=0;fontColor=#FF3333;" vertex="1" parent="1">
          <mxGeometry x="468.62" y="191.5" width="40" height="20" as="geometry" />
        </mxCell>
      </root>
    </mxGraphModel>
  </diagram>
</mxfile>
